<svg xmlns:dc="http://purl.org/dc/elements/1.1/" xmlns:cc="http://creativecommons.org/ns#" xmlns:rdf="http://www.w3.org/1999/02/22-rdf-syntax-ns#" xmlns:svg="http://www.w3.org/2000/svg" xmlns="http://www.w3.org/2000/svg" xmlns:sodipodi="http://sodipodi.sourceforge.net/DTD/sodipodi-0.dtd" xmlns:inkscape="http://www.inkscape.org/namespaces/inkscape" fill="#14c9bd" version="1.1" x="0px" y="0px" viewBox="0 0 100 125"><path style="font-size:medium;font-style:normal;font-variant:normal;font-weight:normal;font-stretch:normal;text-indent:0;text-align:start;text-decoration:none;line-height:normal;letter-spacing:normal;word-spacing:normal;text-transform:none;direction:ltr;block-progression:tb;writing-mode:lr-tb;text-anchor:start;baseline-shift:baseline;opacity:1;color:#14c9bd;fill:#14c9bd;fill-opacity:1;stroke:none;stroke-width:18;marker:none;visibility:visible;display:inline;overflow:visible;enable-background:accumulate;font-family:Sans;-inkscape-font-specification:Sans" d="M 50 6 C 32.341933 6 18 20.476607 18 38.25 C 18 55.838147 29.528645 73.093632 48.53125 93.375 A 2.0002 2.0002 0 0 0 51.46875 93.375 C 70.471355 73.093632 82 55.838147 82 38.25 A 2.0002 2.0002 0 1 0 78 38.25 C 78 53.600813 67.76295 69.68249 50 88.9375 C 32.23705 69.68249 22 53.600813 22 38.25 C 22 22.621211 34.520987 10 50 10 C 62.794906 10 73.549868 18.634275 76.90625 30.4375 A 2.0132011 2.0132011 0 1 0 80.78125 29.34375 C 76.948598 15.865647 64.596106 6 50 6 z M 50 21 C 40.634848 21 33 28.634848 33 38 C 33 47.365152 40.634848 55 50 55 C 59.365151 55 67 47.365152 67 38 C 67 28.634848 59.365151 21 50 21 z M 50 25 C 57.203391 25 63 30.796609 63 38 C 63 45.203392 57.203391 51 50 51 C 42.796608 51 37 45.203392 37 38 C 37 30.796609 42.796608 25 50 25 z "/></svg>