<svg xmlns="http://www.w3.org/2000/svg" xmlns:xlink="http://www.w3.org/1999/xlink" xmlns:xodm="http://www.corel.com/coreldraw/odm/2003" xml:space="preserve" version="1.1" style="shape-rendering:geometricPrecision;text-rendering:geometricPrecision;image-rendering:optimizeQuality;" viewBox="0 0 846.66 1058.325" x="0px" y="0px" fill-rule="evenodd" clip-rule="evenodd" fill="#14c9bd"><defs><style type="text/css"></style></defs><g><path class="fil0" d="M423.33 733.3c-70.52,-122.14 -234.43,-333.18 -234.43,-477.7 0,-129.47 104.95,-234.43 234.43,-234.43 129.47,0 234.43,104.96 234.43,234.43 0,144.52 -163.91,355.56 -234.43,477.7zm233.75 5.15c0,48.08 -104.65,87.05 -233.75,87.05 -129.1,0 -233.76,-38.97 -233.76,-87.05 0,-36.88 61.55,-68.39 148.48,-81.08l19.9 30.92c-59.55,6.85 -101.28,22.75 -101.28,41.29 0,24.79 74.61,44.88 166.66,44.88 92.05,0 166.66,-20.09 166.66,-44.88 0,-18.54 -41.73,-34.44 -101.28,-41.29l19.9 -30.92c86.92,12.69 148.47,44.2 148.47,81.08zm-233.75 -577.77c52.42,0 94.93,42.51 94.93,94.93 0,52.42 -42.51,94.93 -94.93,94.93 -52.42,0 -94.93,-42.51 -94.93,-94.93 0,-52.42 42.51,-94.93 94.93,-94.93z"/></g></svg>