<svg xmlns="http://www.w3.org/2000/svg" viewBox="0 0 64 64" x="0px" y="0px" fill="#14c9bd"><title>strategy</title><path d="M23.59,8.17l.29-.29A2.9727,2.9727,0,0,1,26,7h6A15.0183,15.0183,0,0,1,47,22V37.2l3.55-2.37A.995.995,0,0,0,51,34V22A19.0172,19.0172,0,0,0,32,3H22a.984.984,0,0,0-.88.53.9634.9634,0,0,0,.05,1.02Z"/><path d="M52,51H49V50a5.0018,5.0018,0,0,0-5-5h-.54A5.9306,5.9306,0,0,0,45,41V22A13.0124,13.0124,0,0,0,32,9H26a1.0327,1.0327,0,0,0-.71.29l-10,10a1.008,1.008,0,0,0,0,1.42l5,5a1.0173,1.0173,0,0,0,.98.25L25.7,24.7l.01-.01c.36-.38.74-.73,1.13-1.08l1.5-1.35a.9711.9711,0,0,1,.67-.26H31a3.0088,3.0088,0,0,0,3-3,1,1,0,0,1,2,0,5.0018,5.0018,0,0,1-5,5H29.39l-1.21,1.09a29.6624,29.6624,0,0,0-9.16,15.69,1.0211,1.0211,0,0,0,.27.93L22.58,45H20a5.0018,5.0018,0,0,0-5,5v1H12a1.0029,1.0029,0,0,0-1,1v8a1.0029,1.0029,0,0,0,1,1H52a1.0029,1.0029,0,0,0,1-1V52A1.0029,1.0029,0,0,0,52,51ZM23.71,16.55l-3.17,3.16a1.0141,1.0141,0,0,1-1.42,0,1.008,1.008,0,0,1,0-1.42l3.17-3.16a1.0041,1.0041,0,1,1,1.42,1.42ZM26,14a1,1,0,1,1,1-1A1.0029,1.0029,0,0,1,26,14Zm3,13a1,1,0,1,1-1,1A1.0029,1.0029,0,0,1,29,27ZM22.02,37.66a27.6542,27.6542,0,0,1,3.76-6.97,1,1,0,0,1,1.6,1.2,25.4784,25.4784,0,0,0-3.48,6.45.9975.9975,0,0,1-.94.66,1.0158,1.0158,0,0,1-.34-.06A.9976.9976,0,0,1,22.02,37.66ZM20,57H14a1,1,0,0,1,0-2h6a1,1,0,0,1,0,2Zm4,0a1,1,0,1,1,1-1A1.0029,1.0029,0,0,1,24,57Z"/></svg>