<svg xmlns="http://www.w3.org/2000/svg" viewBox="0 0 64 64" x="0px" y="0px" stroke="10px"><title>strategy</title><path d="M22,57H16a1,1,0,0,1,0-2h6a1,1,0,0,1,0,2Z" fill="#14c9bd" /><path d="M24.457,40.8a1,1,0,0,1-.9541-1.2988A25.5481,25.5481,0,0,1,27.76,31.3848a1,1,0,1,1,1.5761,1.23,23.5856,23.5856,0,0,0-3.9248,7.4834A1,1,0,0,1,24.457,40.8Z" fill="#14c9bd"/><path d="M21.6572,21a1,1,0,0,1-.707-1.707L24.293,15.95a1,1,0,0,1,1.414,1.4141L22.3643,20.707A.9971.9971,0,0,1,21.6572,21Z" fill="#14c9bd"/><circle cx="26" cy="56" r="1" fill="#14c9bd"/><circle cx="31" cy="29" r="1" fill="#14c9bd"/><circle cx="28" cy="14" r="1" fill="#14c9bd"/><path d="M52,51H49V50a5.0059,5.0059,0,0,0-5-5H43.46A5.9688,5.9688,0,0,0,45,41V38.5352l5.5547-3.7032A1,1,0,0,0,51,34V22A19.0216,19.0216,0,0,0,32,3H22a1,1,0,0,0-.832,1.5547l3.5453,5.318-9.42,9.42a.9994.9994,0,0,0,0,1.414l5,5a1.0072,1.0072,0,0,0,.9814.2549L28.1406,24h1.253l-1.21,1.0889a29.6551,29.6551,0,0,0-9.16,15.6943.998.998,0,0,0,.27.9238L22.5859,45H20a5.0059,5.0059,0,0,0-5,5v1H12a1,1,0,0,0-1,1v8a1,1,0,0,0,1,1H52a1,1,0,0,0,1-1V52A1,1,0,0,0,52,51ZM32,5A17.019,17.019,0,0,1,49,22V33.4648l-4,2.6667V22A13.015,13.015,0,0,0,32,9H26.5351L23.8682,5ZM21.1,40.6855a27.6583,27.6583,0,0,1,8.4219-14.11l3.1474-2.833c.0221-.02.0353-.046.0553-.0675A4.9944,4.9944,0,0,0,36,19a1,1,0,0,0-2,0,3.004,3.004,0,0,1-2.9918,2.9993L28,22a1,1,0,0,0-.2744.0381L21.291,23.877,17.4141,20l9-9H32A11.0125,11.0125,0,0,1,43,22V41a4.0039,4.0039,0,0,1-4,4H25.4141ZM17,50a3.0033,3.0033,0,0,1,3-3H44a3.0033,3.0033,0,0,1,3,3v1H17Zm34,9H13V53H51Z" fill="#14c9bd"/></svg>